<svg xmlns="http://www.w3.org/2000/svg" viewBox="0 0 269.83 78.59"><defs><style>.cls-1{fill:#252e61;}.cls-2{fill:#fff;}.cls-3{fill:#adadad;}.cls-4{fill:#4cb8aa;}</style></defs><g id="Capa_2" data-name="Capa 2"><g id="Capa_1-2" data-name="Capa 1"><rect class="cls-1" width="269.83" height="78.59"/><circle class="cls-2" cx="34.2" cy="39.09" r="2.02"/><circle class="cls-2" cx="39.92" cy="39.09" r="2.02"/><circle class="cls-2" cx="28.41" cy="39.09" r="2.02"/><circle class="cls-2" cx="22.62" cy="39.09" r="2.02"/><circle class="cls-2" cx="34.2" cy="44.91" r="2.02"/><circle class="cls-3" cx="28.41" cy="44.91" r="2.02"/><circle class="cls-4" cx="34.2" cy="33.33" r="2.02"/><circle class="cls-2" cx="28.41" cy="33.33" r="2.02"/><path class="cls-2" d="M76.59,37.55v9.37H73.26V37.73a5.6,5.6,0,0,0-.36-2.18,2.62,2.62,0,0,0-1.11-1.27,3.74,3.74,0,0,0-1.88-.41,4.86,4.86,0,0,0-1.68.28,4.16,4.16,0,0,0-1.36.79A3.5,3.5,0,0,0,66,36.11a3.29,3.29,0,0,0-.32,1.47v9.34H62.33V37.67A5.05,5.05,0,0,0,62,35.61a2.86,2.86,0,0,0-1.12-1.3A3.37,3.37,0,0,0,59,33.87a4.7,4.7,0,0,0-1.66.28,4.57,4.57,0,0,0-1.35.77,3.57,3.57,0,0,0-.89,1.16,3.37,3.37,0,0,0-.32,1.44v9.4H51.49V31.31h3.33v2.48a2.55,2.55,0,0,1,.21-.28,5.71,5.71,0,0,1,1.37-1.26,7.63,7.63,0,0,1,1.76-.88A5.8,5.8,0,0,1,60.09,31a6.6,6.6,0,0,1,2.53.45,4.35,4.35,0,0,1,1.79,1.34,5.11,5.11,0,0,1,.8,1.48,5.14,5.14,0,0,1,.91-1.17,7.74,7.74,0,0,1,1.42-1.09,8,8,0,0,1,1.7-.74A6,6,0,0,1,71,31a6.2,6.2,0,0,1,3.11.71A4.51,4.51,0,0,1,76,33.93,9.33,9.33,0,0,1,76.59,37.55Z"/><path class="cls-2" d="M92.66,34.72a4.06,4.06,0,0,0-.45-.91,5.49,5.49,0,0,0-1.34-1.47,6.14,6.14,0,0,0-1.9-1,7.6,7.6,0,0,0-2.4-.36,7.75,7.75,0,0,0-4,1,7.67,7.67,0,0,0-2.81,2.87,8.23,8.23,0,0,0-1,4.18,8.43,8.43,0,0,0,1,4.16,7.86,7.86,0,0,0,2.74,2.92,7,7,0,0,0,3.78,1.07,7.41,7.41,0,0,0,2.32-.36,8.34,8.34,0,0,0,2-1,6.56,6.56,0,0,0,1.5-1.35s0,0,0,0v2.39h3.33V31.31Zm-1,7.1a4.91,4.91,0,0,1-1.81,1.89,5.15,5.15,0,0,1-2.65.68,5,5,0,0,1-2.61-.68,4.93,4.93,0,0,1-1.79-1.89,5.62,5.62,0,0,1-.65-2.75,5.51,5.51,0,0,1,.65-2.71,4.85,4.85,0,0,1,4.4-2.55,5.05,5.05,0,0,1,2.65.68,4.93,4.93,0,0,1,1.81,1.87,5.63,5.63,0,0,1,.65,2.71A5.73,5.73,0,0,1,91.61,41.82Z"/><path class="cls-2" d="M109,31.28l-.86,3.33a6.1,6.1,0,0,0-.85-.25,4.11,4.11,0,0,0-.91-.11,4.47,4.47,0,0,0-1.64.31,4.37,4.37,0,0,0-1.38.87,4.08,4.08,0,0,0-.94,1.28A3.5,3.5,0,0,0,102,38.3v8.62H98.71V31.31H102v2.92a5.74,5.74,0,0,1,.87-1.25,6.32,6.32,0,0,1,2-1.46,5.09,5.09,0,0,1,2.28-.54,5.83,5.83,0,0,1,1,.09A3.86,3.86,0,0,1,109,31.28Z"/><path class="cls-2" d="M125.84,34.89A7.66,7.66,0,0,0,123.06,32a7.83,7.83,0,0,0-4-1,6.92,6.92,0,0,0-2,.31,8.31,8.31,0,0,0-1.84.84,6,6,0,0,0-1.39,1.16l-.19.24V24.92H110.3V46.83h3.29v-2A7,7,0,0,0,115,46a8.13,8.13,0,0,0,2,.88,7.24,7.24,0,0,0,2.15.33,7.48,7.48,0,0,0,6.73-4,8.63,8.63,0,0,0,1-4.19A8.43,8.43,0,0,0,125.84,34.89ZM123,41.82a5.18,5.18,0,0,1-7.09,1.9,5.06,5.06,0,0,1-1.83-1.9,5.63,5.63,0,0,1-.67-2.75,5.56,5.56,0,0,1,.67-2.72,5.29,5.29,0,0,1,7.13-1.89A4.91,4.91,0,0,1,123,36.35a6,6,0,0,1,0,5.47Z"/><path class="cls-2" d="M153.62,31.31v3h-3.9V46.92h-3.29V34.28h-3.15l-5.59,12.64-2.85,6.84h-3.55l2.83-6.09-7.79-16.36h3.84l5.24,11.48a6.69,6.69,0,0,1,.39.9c0,.05,0,.09,0,.13.16-.41.31-.83.46-1.24l4.38-11.27h5.74v-4h3.29v4Z"/><path class="cls-2" d="M163.51,35.45a1.57,1.57,0,0,1-.25.89,1.69,1.69,0,0,1-.72.59,2.51,2.51,0,0,1-1.06.22,2.71,2.71,0,0,1-.82-.13,2.19,2.19,0,0,1-.71-.37,2.73,2.73,0,0,1-.57-.6l.45-.5a2.52,2.52,0,0,0,.79.78,2,2,0,0,0,.92.22,1.63,1.63,0,0,0,.67-.13,1.08,1.08,0,0,0,.48-.34.85.85,0,0,0,.17-.51.9.9,0,0,0-.06-.34.67.67,0,0,0-.19-.26,1.14,1.14,0,0,0-.3-.21,3.19,3.19,0,0,0-.41-.16l-.53-.15a4.86,4.86,0,0,1-.73-.23,2.07,2.07,0,0,1-.54-.34,1.28,1.28,0,0,1-.32-.45,1.45,1.45,0,0,1-.11-.61,1.33,1.33,0,0,1,.14-.63,1.48,1.48,0,0,1,.4-.5,1.81,1.81,0,0,1,.6-.32,2.6,2.6,0,0,1,1.53,0,1.79,1.79,0,0,1,.62.34,2.79,2.79,0,0,1,.47.55l-.45.45a2.63,2.63,0,0,0-.39-.47,1.75,1.75,0,0,0-.48-.3,1.52,1.52,0,0,0-.57-.1,1.59,1.59,0,0,0-.64.12,1.05,1.05,0,0,0-.43.34.85.85,0,0,0-.16.5.83.83,0,0,0,.08.36.77.77,0,0,0,.23.28,2,2,0,0,0,.42.22,4.87,4.87,0,0,0,.62.17,5.86,5.86,0,0,1,.77.24,2.85,2.85,0,0,1,.58.33,1.21,1.21,0,0,1,.37.45A1.25,1.25,0,0,1,163.51,35.45Z"/><path class="cls-2" d="M170.16,31.31v5.76h-.64V34.44c0-.5,0-.94,0-1.34,0-.23,0-.46.05-.69l-1.9,3h-.45l-1.86-3c0,.21,0,.42,0,.64,0,.38,0,.84,0,1.38v2.63h-.64V31.31h.62l2.07,3.35,2.08-3.35Z"/><path class="cls-2" d="M174.14,31.31h-.73l-2.2,5.76h.66l.6-1.59H175l.6,1.59h.7Zm-1.44,3.54.57-1.48c0-.13.09-.27.14-.41l.15-.41c.05-.14.1-.28.14-.42l.06-.17,0,.13.15.44.15.44c.05.14.09.26.13.36l.57,1.52Z"/><path class="cls-2" d="M180.28,34.7a1.51,1.51,0,0,0,.29-.13,1.73,1.73,0,0,0,.62-.61,1.62,1.62,0,0,0,.24-.86,1.78,1.78,0,0,0-.24-.92,1.71,1.71,0,0,0-.65-.63,1.74,1.74,0,0,0-.91-.24h-2.25v5.76H178V34.8h1.57l1.3,2.27h.77ZM178,34.17V31.94h1.53a1.39,1.39,0,0,1,.63.14,1.15,1.15,0,0,1,.59,1,1.24,1.24,0,0,1-.13.55,1,1,0,0,1-.37.38,1,1,0,0,1-.53.14Z"/><polygon class="cls-2" points="186.03 31.31 186.03 31.94 184.32 31.94 184.32 37.07 183.68 37.07 183.68 31.94 182.04 31.94 182.04 31.31 186.03 31.31"/><path class="cls-2" d="M193.13,35.45a1.58,1.58,0,0,1-.26.89,1.72,1.72,0,0,1-.71.59,2.51,2.51,0,0,1-1.06.22,2.71,2.71,0,0,1-.82-.13,2.1,2.1,0,0,1-.71-.37,2.73,2.73,0,0,1-.57-.6l.45-.5a2.42,2.42,0,0,0,.79.78,1.94,1.94,0,0,0,.91.22,1.65,1.65,0,0,0,.68-.13,1.13,1.13,0,0,0,.48-.34.85.85,0,0,0,.17-.51.9.9,0,0,0-.06-.34,1,1,0,0,0-.19-.26,1.14,1.14,0,0,0-.3-.21,2.85,2.85,0,0,0-.42-.16l-.52-.15a5.42,5.42,0,0,1-.74-.23,2,2,0,0,1-.53-.34,1.31,1.31,0,0,1-.33-.45,1.62,1.62,0,0,1-.11-.61,1.33,1.33,0,0,1,.15-.63,1.45,1.45,0,0,1,.39-.5,1.91,1.91,0,0,1,.6-.32,2.64,2.64,0,0,1,1.54,0,1.79,1.79,0,0,1,.62.34,2.79,2.79,0,0,1,.47.55l-.46.45a2,2,0,0,0-.39-.47,1.5,1.5,0,0,0-1-.4,1.54,1.54,0,0,0-.63.12,1,1,0,0,0-.43.34.79.79,0,0,0-.16.5,1,1,0,0,0,.07.36.71.71,0,0,0,.24.28,1.81,1.81,0,0,0,.42.22,4.87,4.87,0,0,0,.62.17,6.38,6.38,0,0,1,.77.24,3.16,3.16,0,0,1,.58.33,1.44,1.44,0,0,1,.37.45A1.38,1.38,0,0,1,193.13,35.45Z"/><path class="cls-2" d="M199.41,33a2.89,2.89,0,0,0-.59-.93,2.68,2.68,0,0,0-.9-.62,3.12,3.12,0,0,0-2.25,0,2.64,2.64,0,0,0-.89.62,2.76,2.76,0,0,0-.6.93,3.31,3.31,0,0,0-.21,1.19,3.16,3.16,0,0,0,.21,1.17,2.8,2.8,0,0,0,.6.94,2.62,2.62,0,0,0,.89.61,3,3,0,0,0,2.25,0,2.55,2.55,0,0,0,.9-.62,2.73,2.73,0,0,0,.59-.94,3.11,3.11,0,0,0,.21-1.16A3.31,3.31,0,0,0,199.41,33Zm-.62,2.11a2.07,2.07,0,0,1-.44.73,2.12,2.12,0,0,1-.69.49,2.25,2.25,0,0,1-.87.16,2.28,2.28,0,0,1-.87-.16,2.08,2.08,0,0,1-.68-.49,2.25,2.25,0,0,1-.45-.73,2.73,2.73,0,0,1-.15-.92,2.85,2.85,0,0,1,.15-.94,2.25,2.25,0,0,1,.45-.73,2.08,2.08,0,0,1,.68-.49,2.29,2.29,0,0,1,.87-.17,2.25,2.25,0,0,1,.87.17,2.12,2.12,0,0,1,.69.49,2.07,2.07,0,0,1,.44.73,2.61,2.61,0,0,1,.16.94A2.51,2.51,0,0,1,198.79,35.13Z"/><polygon class="cls-2" points="204.27 36.44 204.27 37.07 200.87 37.07 200.87 31.31 201.51 31.31 201.51 36.44 204.27 36.44"/><path class="cls-2" d="M209.83,31.31v3.55a2.25,2.25,0,0,1-.29,1.16,2,2,0,0,1-.8.81,2.43,2.43,0,0,1-1.18.29,2.31,2.31,0,0,1-1.15-.29,2,2,0,0,1-.8-.81,2.25,2.25,0,0,1-.3-1.16V31.31H206v3.48a1.81,1.81,0,0,0,.22.87,1.55,1.55,0,0,0,.58.61,1.49,1.49,0,0,0,.81.22,1.62,1.62,0,0,0,1.45-.83,1.81,1.81,0,0,0,.21-.87V31.31Z"/><polygon class="cls-2" points="214.89 31.31 214.89 31.94 213.18 31.94 213.18 37.07 212.54 37.07 212.54 31.94 210.89 31.94 210.89 31.31 214.89 31.31"/><polygon class="cls-2" points="217.27 31.92 217.27 36.46 218.2 36.46 218.2 37.07 215.7 37.07 215.7 36.46 216.63 36.46 216.63 31.92 215.7 31.92 215.7 31.31 218.2 31.31 218.2 31.92 217.27 31.92"/><path class="cls-2" d="M224.49,33a2.89,2.89,0,0,0-.59-.93,2.68,2.68,0,0,0-.9-.62,3.12,3.12,0,0,0-2.25,0,2.64,2.64,0,0,0-.89.62,2.76,2.76,0,0,0-.6.93,3.54,3.54,0,0,0-.21,1.19,3.38,3.38,0,0,0,.21,1.17,2.8,2.8,0,0,0,.6.94,2.62,2.62,0,0,0,.89.61,3,3,0,0,0,2.25,0,2.55,2.55,0,0,0,.9-.62,2.73,2.73,0,0,0,.59-.94,3.11,3.11,0,0,0,.21-1.16A3.31,3.31,0,0,0,224.49,33Zm-.62,2.11a2.07,2.07,0,0,1-.44.73,2,2,0,0,1-.69.49,2.25,2.25,0,0,1-.87.16,2.2,2.2,0,0,1-.86-.16,2,2,0,0,1-.69-.49,2.07,2.07,0,0,1-.44-.73,2.51,2.51,0,0,1-.16-.92,2.61,2.61,0,0,1,.16-.94,2.07,2.07,0,0,1,.44-.73,2,2,0,0,1,.69-.49,2.2,2.2,0,0,1,.86-.17,2.25,2.25,0,0,1,.87.17,2,2,0,0,1,.69.49,2.07,2.07,0,0,1,.44.73,2.61,2.61,0,0,1,.16.94A2.51,2.51,0,0,1,223.87,35.13Z"/><path class="cls-2" d="M230.72,31.31v5.76h-.6l-3.62-4.76c0,.11,0,.21,0,.32s0,.42,0,.61,0,.38,0,.54,0,.31,0,.43,0,.19,0,.24v2.62H226V31.31h.58l3.62,4.78s0,0,0,0c0-.18,0-.38,0-.6s0-.45,0-.7,0-.47,0-.7,0-.44,0-.63V31.31Z"/><path class="cls-2" d="M236.12,35.45a1.57,1.57,0,0,1-.25.89,1.72,1.72,0,0,1-.71.59,2.55,2.55,0,0,1-1.07.22,2.76,2.76,0,0,1-.82-.13,2.19,2.19,0,0,1-.71-.37,2.48,2.48,0,0,1-.56-.6l.44-.5a2.52,2.52,0,0,0,.79.78,2,2,0,0,0,.92.22,1.68,1.68,0,0,0,.68-.13,1,1,0,0,0,.47-.34.79.79,0,0,0,.17-.51.9.9,0,0,0-.06-.34.76.76,0,0,0-.18-.26,1.41,1.41,0,0,0-.31-.21,3.19,3.19,0,0,0-.41-.16l-.52-.15a5,5,0,0,1-.74-.23,1.86,1.86,0,0,1-.53-.34,1.19,1.19,0,0,1-.33-.45,1.6,1.6,0,0,1,0-1.24,1.61,1.61,0,0,1,.4-.5,1.91,1.91,0,0,1,.6-.32,2.21,2.21,0,0,1,.74-.11,2.15,2.15,0,0,1,.79.12,1.79,1.79,0,0,1,.62.34,2.49,2.49,0,0,1,.47.55l-.45.45a2.63,2.63,0,0,0-.39-.47,1.75,1.75,0,0,0-.48-.3,1.48,1.48,0,0,0-.57-.1,1.62,1.62,0,0,0-.64.12,1.12,1.12,0,0,0-.43.34.84.84,0,0,0-.15.5.83.83,0,0,0,.07.36.77.77,0,0,0,.23.28,2,2,0,0,0,.42.22,5.38,5.38,0,0,0,.62.17,5.86,5.86,0,0,1,.77.24,2.85,2.85,0,0,1,.58.33,1.21,1.21,0,0,1,.37.45A1.25,1.25,0,0,1,236.12,35.45Z"/><polygon class="cls-2" points="160.44 41.8 160.44 43.73 163.03 43.73 163.03 44.36 160.44 44.36 160.44 46.93 159.8 46.93 159.8 41.17 163.42 41.17 163.42 41.8 160.44 41.8"/><path class="cls-2" d="M169.59,42.89A2.63,2.63,0,0,0,169,42a2.79,2.79,0,0,0-.89-.62,3,3,0,0,0-1.13-.21,2.9,2.9,0,0,0-1.12.21,2.84,2.84,0,0,0-.9.62,2.94,2.94,0,0,0-.59.94,3.22,3.22,0,0,0-.21,1.18,3.25,3.25,0,0,0,.21,1.18,2.89,2.89,0,0,0,.59.93,2.66,2.66,0,0,0,.9.61A2.73,2.73,0,0,0,167,47a2.78,2.78,0,0,0,1.13-.22,2.77,2.77,0,0,0,1.48-1.55,3.25,3.25,0,0,0,0-2.35ZM169,45a2.41,2.41,0,0,1-.45.74,2,2,0,0,1-.69.48,2.2,2.2,0,0,1-.86.16,2.28,2.28,0,0,1-.87-.16A2,2,0,0,1,165,45a2.73,2.73,0,0,1-.15-.92,2.85,2.85,0,0,1,.15-.94,2.16,2.16,0,0,1,.44-.73,2.23,2.23,0,0,1,.69-.49,2.29,2.29,0,0,1,.87-.17,2.2,2.2,0,0,1,.86.17,2,2,0,0,1,.69.49,2.36,2.36,0,0,1,.45.73,2.61,2.61,0,0,1,.16.94A2.51,2.51,0,0,1,169,45Z"/><path class="cls-2" d="M174,44.56a1.28,1.28,0,0,0,.29-.13A1.66,1.66,0,0,0,175.1,43a1.78,1.78,0,0,0-.24-.92,1.71,1.71,0,0,0-.65-.63,1.74,1.74,0,0,0-.91-.24h-2.25v5.76h.64V44.66h1.58l1.29,2.27h.77Zm-2.26-2.76h1.53a1.28,1.28,0,0,1,.63.15,1,1,0,0,1,.43.41,1.08,1.08,0,0,1,.16.6,1.09,1.09,0,0,1-.13.55,1,1,0,0,1-.36.38,1,1,0,0,1-.54.14h-1.72Z"/><path class="cls-2" d="M182.88,44.55a1.63,1.63,0,0,0-.47-.51,1.65,1.65,0,0,0-.44-.22,1.36,1.36,0,0,0,.5-.38,1.28,1.28,0,0,0,.27-.82,1.47,1.47,0,0,0-.2-.77,1.36,1.36,0,0,0-.56-.5,1.93,1.93,0,0,0-.87-.18h-2.33v5.76h2.41a2.24,2.24,0,0,0,.76-.12,1.79,1.79,0,0,0,.59-.34,1.58,1.58,0,0,0,.37-.54,1.75,1.75,0,0,0,.13-.7A1.39,1.39,0,0,0,182.88,44.55Zm-3.46-2.75H181a1.14,1.14,0,0,1,.79.25.87.87,0,0,1,.28.68.85.85,0,0,1-.13.47,1,1,0,0,1-.36.33,1.15,1.15,0,0,1-.53.12h-1.64Zm2.8,4a1,1,0,0,1-.43.36,1.44,1.44,0,0,1-.64.13h-1.73v-2h1.68a1.71,1.71,0,0,1,.67.12,1.18,1.18,0,0,1,.44.35.85.85,0,0,1,.16.52A1,1,0,0,1,182.22,45.81Z"/><polygon class="cls-2" points="185.59 41.78 185.59 46.32 186.52 46.32 186.52 46.93 184.02 46.93 184.02 46.32 184.95 46.32 184.95 41.78 184.02 41.78 184.02 41.17 186.52 41.17 186.52 41.78 185.59 41.78"/><path class="cls-2" d="M192.81,42.89a2.88,2.88,0,0,0-3.74-1.56,2.79,2.79,0,0,0-.89.62,3,3,0,0,0-.6.94,3.22,3.22,0,0,0-.21,1.18,3.25,3.25,0,0,0,.21,1.18,2.92,2.92,0,0,0,.6.93,2.62,2.62,0,0,0,.89.61,3,3,0,0,0,2.25,0,2.64,2.64,0,0,0,.9-.62,2.79,2.79,0,0,0,.59-.93,3.39,3.39,0,0,0,0-2.35Zm-.62,2.1a2.2,2.2,0,0,1-.44.74,2.09,2.09,0,0,1-.69.48,2.28,2.28,0,0,1-.87.16,2.2,2.2,0,0,1-.86-.16,2,2,0,0,1-.69-.48,2.2,2.2,0,0,1-.44-.74,2.51,2.51,0,0,1-.16-.92,2.61,2.61,0,0,1,.16-.94,2.16,2.16,0,0,1,.44-.73,2,2,0,0,1,.69-.49,2.2,2.2,0,0,1,.86-.17,2.29,2.29,0,0,1,.87.17,2.12,2.12,0,0,1,.69.49,2.16,2.16,0,0,1,.44.73,2.61,2.61,0,0,1,.16.94A2.51,2.51,0,0,1,192.19,45Z"/><polygon class="cls-2" points="197.41 41.17 197.41 41.8 195.71 41.8 195.71 46.93 195.06 46.93 195.06 41.8 193.42 41.8 193.42 41.17 197.41 41.17"/><polygon class="cls-2" points="199.14 41.8 199.14 43.65 201.53 43.65 201.53 44.28 199.14 44.28 199.14 46.3 201.97 46.3 201.97 46.93 198.5 46.93 198.5 41.17 201.99 41.17 201.99 41.8 199.14 41.8"/><path class="cls-2" d="M207.43,45.69l.33.53a1.57,1.57,0,0,1-.5.4,2.94,2.94,0,0,1-.7.29,3.22,3.22,0,0,1-.75.1,2.86,2.86,0,0,1-1.14-.22,2.51,2.51,0,0,1-.89-.62,2.73,2.73,0,0,1-.59-.94,3.22,3.22,0,0,1-.21-1.18,3.11,3.11,0,0,1,.21-1.16,2.66,2.66,0,0,1,.6-.93,2.48,2.48,0,0,1,.89-.61,2.73,2.73,0,0,1,1.12-.22,2.79,2.79,0,0,1,.8.13,3,3,0,0,1,.72.35,2.25,2.25,0,0,1,.55.51l-.45.46a1.93,1.93,0,0,0-.47-.43,2.44,2.44,0,0,0-.56-.28,2,2,0,0,0-.59-.1,2.14,2.14,0,0,0-1.55.64,2.16,2.16,0,0,0-.44.73,2.45,2.45,0,0,0-.16.91,2.61,2.61,0,0,0,.16.94A2.12,2.12,0,0,0,205,46.2a2.42,2.42,0,0,0,.91.17,2,2,0,0,0,.59-.09A2.48,2.48,0,0,0,207,46,1.76,1.76,0,0,0,207.43,45.69Z"/><polygon class="cls-2" points="213.47 41.17 213.47 46.93 212.83 46.93 212.83 44.37 209.62 44.37 209.62 46.93 208.98 46.93 208.98 41.17 209.62 41.17 209.62 43.75 212.83 43.75 212.83 41.17 213.47 41.17"/><path class="cls-2" d="M219.93,41.17v5.76h-.6l-3.62-4.76c0,.11,0,.21,0,.32s0,.42,0,.62,0,.37,0,.54,0,.3,0,.42v2.86h-.64V41.17h.58L219.36,46v-.05q0-.27,0-.6c0-.22,0-.45,0-.69s0-.48,0-.71,0-.44,0-.63V41.17Z"/><path class="cls-2" d="M226.62,42.89A2.94,2.94,0,0,0,226,42a2.84,2.84,0,0,0-.9-.62,3.12,3.12,0,0,0-2.25,0,2.81,2.81,0,0,0-1.49,1.56,3.22,3.22,0,0,0-.21,1.18,3.25,3.25,0,0,0,.21,1.18,2.76,2.76,0,0,0,.6.93,2.62,2.62,0,0,0,.89.61,3,3,0,0,0,2.25,0,2.55,2.55,0,0,0,.9-.62,2.79,2.79,0,0,0,.59-.93,3.39,3.39,0,0,0,0-2.35ZM226,45a2.2,2.2,0,0,1-.44.74,2.09,2.09,0,0,1-.69.48,2.45,2.45,0,0,1-1.74,0,2,2,0,0,1-.68-.48A2.41,2.41,0,0,1,222,45a2.73,2.73,0,0,1-.15-.92,2.85,2.85,0,0,1,.15-.94,2.36,2.36,0,0,1,.45-.73,2.08,2.08,0,0,1,.68-.49,2.31,2.31,0,0,1,1.74,0,2.12,2.12,0,0,1,.69.49,2.16,2.16,0,0,1,.44.73,2.61,2.61,0,0,1,.16.94A2.51,2.51,0,0,1,226,45Z"/><polygon class="cls-2" points="231.48 46.3 231.48 46.93 228.08 46.93 228.08 41.17 228.72 41.17 228.72 46.3 231.48 46.3"/><path class="cls-2" d="M237.56,42.89a2.7,2.7,0,0,0-2.62-1.77,2.9,2.9,0,0,0-1.12.21,2.84,2.84,0,0,0-.9.62,2.94,2.94,0,0,0-.59.94,3.22,3.22,0,0,0-.21,1.18,3.25,3.25,0,0,0,.21,1.18,2.89,2.89,0,0,0,.59.93,2.66,2.66,0,0,0,.9.61,2.73,2.73,0,0,0,1.12.22,2.78,2.78,0,0,0,1.13-.22,2.64,2.64,0,0,0,.9-.62,2.79,2.79,0,0,0,.59-.93,3.39,3.39,0,0,0,0-2.35Zm-.62,2.1a2.41,2.41,0,0,1-.45.74,2,2,0,0,1-.68.48,2.45,2.45,0,0,1-1.74,0,2,2,0,0,1-.68-.48,2.23,2.23,0,0,1-.45-.74,2.73,2.73,0,0,1-.15-.92,2.85,2.85,0,0,1,.15-.94,2.18,2.18,0,0,1,.45-.73,2.08,2.08,0,0,1,.68-.49,2.31,2.31,0,0,1,1.74,0,2.08,2.08,0,0,1,.68.49,2.36,2.36,0,0,1,.45.73,2.61,2.61,0,0,1,.16.94A2.51,2.51,0,0,1,236.94,45Z"/><path class="cls-2" d="M244.12,44.58a2.45,2.45,0,0,1-.2,1,2.33,2.33,0,0,1-.54.77,2.61,2.61,0,0,1-.81.5,2.79,2.79,0,0,1-1,.18,3,3,0,0,1-1.17-.22,3.23,3.23,0,0,1-1-.62,2.73,2.73,0,0,1-.63-.93,3,3,0,0,1-.23-1.17,3,3,0,0,1,.85-2.11,2.82,2.82,0,0,1,.94-.61,3.15,3.15,0,0,1,1.16-.22,2.79,2.79,0,0,1,.85.13,2.82,2.82,0,0,1,.77.34,2.29,2.29,0,0,1,.56.5l-.43.44a2.24,2.24,0,0,0-.51-.41,2.53,2.53,0,0,0-.61-.27,2,2,0,0,0-.63-.1,2.25,2.25,0,0,0-.9.17,2.07,2.07,0,0,0-.72.48,2.29,2.29,0,0,0-.49.73,2.52,2.52,0,0,0-.17.93,2.34,2.34,0,0,0,.18.91,2.15,2.15,0,0,0,.5.74,2.24,2.24,0,0,0,.75.48,2.32,2.32,0,0,0,.92.17,2.09,2.09,0,0,0,.72-.11,1.91,1.91,0,0,0,.6-.32,1.51,1.51,0,0,0,.39-.49,1.27,1.27,0,0,0,.15-.6v-.13h-1.9v-.63h2.54s0,.1,0,.15,0,.12,0,.17Z"/><polygon class="cls-2" points="249.4 41.17 247.3 44.37 247.3 46.93 246.67 46.93 246.67 44.38 244.4 41.17 245.18 41.17 246.99 43.77 248.66 41.17 249.4 41.17"/></g></g></svg>