<?xml version="1.0" encoding="UTF-8" standalone="no"?>
<svg
   viewBox="0 0 223.47 94.26"
   version="1.1"
   id="svg36"
   sodipodi:docname="Identidad_preferente_blanco.svg"
   inkscape:version="1.1.1 (3bf5ae0d25, 2021-09-20)"
   xmlns:inkscape="http://www.inkscape.org/namespaces/inkscape"
   xmlns:sodipodi="http://sodipodi.sourceforge.net/DTD/sodipodi-0.dtd"
   xmlns="http://www.w3.org/2000/svg"
   xmlns:svg="http://www.w3.org/2000/svg">
  <sodipodi:namedview
     id="namedview38"
     pagecolor="#ffffff"
     bordercolor="#666666"
     borderopacity="1.0"
     inkscape:pageshadow="2"
     inkscape:pageopacity="0.0"
     inkscape:pagecheckerboard="0"
     showgrid="false"
     inkscape:zoom="6.0634537"
     inkscape:cx="100.93258"
     inkscape:cy="47.085377"
     inkscape:window-width="1920"
     inkscape:window-height="991"
     inkscape:window-x="-9"
     inkscape:window-y="-9"
     inkscape:window-maximized="1"
     inkscape:current-layer="Capa_1-2" />
  <defs
     id="defs4">
    <style
       id="style2">.cls-1{fill:#252e61;}.cls-2{fill:#adadad;}.cls-3{fill:#4cb8aa;}.cls-4{fill:none;}</style>
  </defs>
  <g
     id="Capa_2"
     data-name="Capa 2">
    <g
       id="Capa_1-2"
       data-name="Capa 1">
      <circle
         class="cls-1"
         cx="42.47"
         cy="48.54"
         r="2.51"
         id="circle6"
         style="fill:#ffffff;fill-opacity:1" />
      <circle
         class="cls-1"
         cx="49.58"
         cy="48.54"
         r="2.51"
         id="circle8"
         style="fill:#ffffff;fill-opacity:1" />
      <circle
         class="cls-1"
         cx="35.28"
         cy="48.54"
         r="2.51"
         id="circle10"
         style="fill:#ffffff;fill-opacity:1" />
      <circle
         class="cls-1"
         cx="28.09"
         cy="48.54"
         r="2.51"
         id="circle12"
         style="fill:#ffffff;fill-opacity:1" />
      <circle
         class="cls-1"
         cx="42.47"
         cy="55.76"
         r="2.51"
         id="circle14"
         style="fill:#ffffff;fill-opacity:1" />
      <circle
         class="cls-2"
         cx="35.28"
         cy="55.76"
         r="2.51"
         id="circle16" />
      <circle
         class="cls-3"
         cx="42.47"
         cy="41.39"
         r="2.51"
         id="circle18" />
      <circle
         class="cls-1"
         cx="35.28"
         cy="41.39"
         r="2.51"
         id="circle20"
         style="fill:#ffffff;fill-opacity:1" />
      <path
         class="cls-1"
         d="M95.11,46.63V58.27H91V46.86a7,7,0,0,0-.45-2.72,3.28,3.28,0,0,0-1.38-1.57,4.74,4.74,0,0,0-2.34-.51,5.94,5.94,0,0,0-2.08.35,5.3,5.3,0,0,0-1.69,1,4.46,4.46,0,0,0-1.11,1.46,4.12,4.12,0,0,0-.4,1.83v11.6H77.4V46.78a6.29,6.29,0,0,0-.47-2.56,3.55,3.55,0,0,0-1.39-1.61,4.22,4.22,0,0,0-2.23-.55,5.75,5.75,0,0,0-2.06.35,5.29,5.29,0,0,0-1.67,1,4.1,4.1,0,0,0-1.11,1.44,4.15,4.15,0,0,0-.4,1.79V58.27H63.94V38.88h4.13V42l.26-.35A7.6,7.6,0,0,1,70,40,9.66,9.66,0,0,1,72.22,39a7.28,7.28,0,0,1,2.4-.4,8.19,8.19,0,0,1,3.14.55A5.34,5.34,0,0,1,80,40.76a6.55,6.55,0,0,1,1,1.85,6,6,0,0,1,1.13-1.46,9.21,9.21,0,0,1,1.76-1.35A9.64,9.64,0,0,1,86,38.88a8.32,8.32,0,0,1,6,.55,5.52,5.52,0,0,1,2.31,2.7A11.57,11.57,0,0,1,95.11,46.63Z"
         id="path22"
         style="fill:#ffffff;fill-opacity:1" />
      <path
         class="cls-1"
         d="M115.06,43.11a5.61,5.61,0,0,0-.55-1.13,7.21,7.21,0,0,0-1.67-1.83,7.66,7.66,0,0,0-2.36-1.23,9.36,9.36,0,0,0-3-.45,9.44,9.44,0,0,0-8.43,4.86,10.3,10.3,0,0,0-1.29,5.19,10.45,10.45,0,0,0,1.27,5.17,9.84,9.84,0,0,0,3.39,3.62,8.77,8.77,0,0,0,4.71,1.33,9.23,9.23,0,0,0,2.88-.45,10.84,10.84,0,0,0,2.5-1.18,7.57,7.57,0,0,0,1.86-1.68s0,0,0,0v3h4.13V38.88Zm-1.3,8.82a6.06,6.06,0,0,1-2.25,2.35,6.37,6.37,0,0,1-3.29.85,6.21,6.21,0,0,1-3.24-.85,6.05,6.05,0,0,1-2.22-2.35,7,7,0,0,1-.81-3.41,6.85,6.85,0,0,1,.81-3.36A6,6,0,0,1,108.22,42a6.28,6.28,0,0,1,3.29.85,6.07,6.07,0,0,1,2.25,2.33,6.85,6.85,0,0,1,.81,3.36A7,7,0,0,1,113.76,51.93Z"
         id="path24"
         style="fill:#ffffff;fill-opacity:1" />
      <path
         class="cls-1"
         d="M135.32,38.84,134.25,43a7.22,7.22,0,0,0-1.05-.31,4.92,4.92,0,0,0-1.14-.13,5.64,5.64,0,0,0-2,.38,5.51,5.51,0,0,0-1.7,1.07,5.23,5.23,0,0,0-1.18,1.59,4.49,4.49,0,0,0-.43,2V58.27h-4.13V38.88h4.13v3.63A7,7,0,0,1,127.8,41a8,8,0,0,1,2.42-1.81,6.37,6.37,0,0,1,2.84-.67,7.65,7.65,0,0,1,1.29.11A6.18,6.18,0,0,1,135.32,38.84Z"
         id="path26"
         style="fill:#ffffff;fill-opacity:1" />
      <path
         class="cls-1"
         d="M156.26,43.33a9.47,9.47,0,0,0-3.45-3.57,9.65,9.65,0,0,0-5-1.29,8.21,8.21,0,0,0-2.5.39,10.54,10.54,0,0,0-2.29,1,7.59,7.59,0,0,0-1.72,1.44c-.09.11-.17.2-.24.3V30.94H137V58.15h4.09V55.69a8.38,8.38,0,0,0,1.77,1.45,10.08,10.08,0,0,0,2.42,1.09,9.13,9.13,0,0,0,2.68.41,9.34,9.34,0,0,0,8.36-4.92,10.69,10.69,0,0,0,1.24-5.2A10.39,10.39,0,0,0,156.26,43.33Zm-3.49,8.6a6.18,6.18,0,0,1-2.26,2.36,6.6,6.6,0,0,1-6.55,0,6.2,6.2,0,0,1-2.27-2.36,7.36,7.36,0,0,1,0-6.79A6.08,6.08,0,0,1,144,42.8a6.74,6.74,0,0,1,6.59,0,5.94,5.94,0,0,1,2.24,2.34,7.44,7.44,0,0,1,0,6.79Z"
         id="path28"
         style="fill:#ffffff;fill-opacity:1" />
      <path
         class="cls-1"
         d="M190.77,38.88v3.69h-4.85v15.7h-4.09V42.57h-3.91L171,58.27l-3.54,8.49H163l3.51-7.56-9.67-20.32h4.77l6.51,14.25a11.54,11.54,0,0,1,.48,1.13,1,1,0,0,1,.05.16c.2-.51.39-1,.58-1.55l5.44-14h7.12v-5h4.09v5Z"
         id="path30"
         style="fill:#ffffff;fill-opacity:1" />
      <rect
         class="cls-4"
         width="223.47"
         height="94.26"
         id="rect32" />
    </g>
  </g>
</svg>
