<svg xmlns="http://www.w3.org/2000/svg" viewBox="0 0 217.34 115.33"><defs><style>.cls-1{fill:#252e61;}.cls-2{fill:#adadad;}.cls-3{fill:#4cb8aa;}.cls-4{fill:none;}</style></defs><g id="Capa_2" data-name="Capa 2"><g id="Capa_1-2" data-name="Capa 1"><circle class="cls-1" cx="38.58" cy="44.09" r="2.28"/><circle class="cls-1" cx="45.03" cy="44.09" r="2.28"/><circle class="cls-1" cx="32.04" cy="44.09" r="2.28"/><circle class="cls-1" cx="25.51" cy="44.09" r="2.28"/><circle class="cls-1" cx="38.58" cy="50.65" r="2.28"/><circle class="cls-2" cx="32.04" cy="50.65" r="2.28"/><circle class="cls-3" cx="38.58" cy="37.59" r="2.28"/><circle class="cls-1" cx="32.04" cy="37.59" r="2.28"/><path class="cls-1" d="M86.38,42.36V52.92H82.63V42.56a6.21,6.21,0,0,0-.41-2.47A2.91,2.91,0,0,0,81,38.67a4.19,4.19,0,0,0-2.12-.47,5.61,5.61,0,0,0-1.9.32,4.71,4.71,0,0,0-1.53.88,4.19,4.19,0,0,0-1,1.33,3.78,3.78,0,0,0-.36,1.66V52.92H70.3V42.49a5.61,5.61,0,0,0-.43-2.33,3.18,3.18,0,0,0-1.26-1.46,3.81,3.81,0,0,0-2-.5,5.5,5.5,0,0,0-1.88.32,4.89,4.89,0,0,0-1.51.87,3.79,3.79,0,0,0-1,1.31,3.69,3.69,0,0,0-.36,1.62v10.6H58.08V35.31h3.75v2.8l.23-.32a6.83,6.83,0,0,1,1.55-1.42,8.73,8.73,0,0,1,2-1A6.85,6.85,0,0,1,67.78,35a7.4,7.4,0,0,1,2.85.51,4.88,4.88,0,0,1,2,1.5,6.12,6.12,0,0,1,.9,1.68,5.7,5.7,0,0,1,1-1.32,8.28,8.28,0,0,1,1.6-1.23,9.31,9.31,0,0,1,1.91-.84,6.91,6.91,0,0,1,2-.3,7,7,0,0,1,3.51.8,5,5,0,0,1,2.09,2.45A10.44,10.44,0,0,1,86.38,42.36Z"/><path class="cls-1" d="M104.51,39.16a5.2,5.2,0,0,0-.51-1,6.4,6.4,0,0,0-1.51-1.66,6.81,6.81,0,0,0-2.14-1.12,8.74,8.74,0,0,0-10.37,4,9.35,9.35,0,0,0-1.17,4.71A9.47,9.47,0,0,0,90,48.76,9,9,0,0,0,93,52.05a8,8,0,0,0,4.28,1.21,8.39,8.39,0,0,0,2.61-.41,9.3,9.3,0,0,0,2.27-1.07,7,7,0,0,0,1.7-1.53l0,0v2.69h3.74V35.31Zm-1.19,8a5.43,5.43,0,0,1-2,2.13,5.76,5.76,0,0,1-3,.77,5.45,5.45,0,0,1-5-2.9,6.43,6.43,0,0,1-.74-3.1A6.3,6.3,0,0,1,93.33,41a5.48,5.48,0,0,1,5-2.88,5.76,5.76,0,0,1,3,.77,5.44,5.44,0,0,1,2,2.11,6.3,6.3,0,0,1,.74,3.06A6.43,6.43,0,0,1,103.32,47.17Z"/><path class="cls-1" d="M122.91,35.28l-1,3.75a7.15,7.15,0,0,0-1-.28,4.59,4.59,0,0,0-1-.12,5.08,5.08,0,0,0-1.86.35,5,5,0,0,0-1.55,1,4.72,4.72,0,0,0-1.06,1.44,4,4,0,0,0-.4,1.8v9.72h-3.75V35.31h3.75v3.3a6.72,6.72,0,0,1,1-1.42,7.44,7.44,0,0,1,2.2-1.64,5.75,5.75,0,0,1,2.58-.61A7.28,7.28,0,0,1,122,35,4.59,4.59,0,0,1,122.91,35.28Z"/><path class="cls-1" d="M141.93,39.36a8.5,8.5,0,0,0-3.14-3.24,8.68,8.68,0,0,0-4.54-1.18,7.63,7.63,0,0,0-2.27.35,9.58,9.58,0,0,0-2.08.94,6.91,6.91,0,0,0-1.57,1.31l-.21.27V28.1H124.4V52.82h3.72V50.58a7.61,7.61,0,0,0,1.6,1.32,9.15,9.15,0,0,0,2.2,1,8.21,8.21,0,0,0,2.43.38,8.47,8.47,0,0,0,7.6-4.47,9.75,9.75,0,0,0,1.13-4.72A9.44,9.44,0,0,0,141.93,39.36Zm-3.17,7.81a5.72,5.72,0,0,1-2.06,2.14,5.56,5.56,0,0,1-3,.79,5.62,5.62,0,0,1-5.05-2.93,6.32,6.32,0,0,1-.75-3.1,6.23,6.23,0,0,1,.75-3.07,5.55,5.55,0,0,1,2.06-2.13,6.21,6.21,0,0,1,6,0,5.41,5.41,0,0,1,2,2.13,6.23,6.23,0,0,1,.74,3.07A6.32,6.32,0,0,1,138.76,47.17Z"/><path class="cls-1" d="M173.27,35.31v3.36h-4.4V52.92h-3.72V38.67H161.6l-6.31,14.25-3.21,7.71h-4l3.19-6.86-8.78-18.46h4.33l5.91,12.95a8.16,8.16,0,0,1,.44,1,.88.88,0,0,0,.05.15c.18-.47.35-.94.52-1.41l4.94-12.71h6.47V30.82h3.72v4.49Z"/><rect class="cls-4" width="217.34" height="115.33"/><path class="cls-1" d="M62.75,73.08a2,2,0,0,1-.31,1.11,2.08,2.08,0,0,1-.89.73,3,3,0,0,1-1.31.26,3.29,3.29,0,0,1-1-.15,2.93,2.93,0,0,1-.88-.45,3.4,3.4,0,0,1-.7-.76l.55-.6a3.1,3.1,0,0,0,1,1,2.47,2.47,0,0,0,2,.12,1.37,1.37,0,0,0,.59-.43,1,1,0,0,0,.21-.63,1.07,1.07,0,0,0-.08-.41,1,1,0,0,0-.23-.33,1.71,1.71,0,0,0-.37-.25,3.78,3.78,0,0,0-.52-.2c-.19-.07-.4-.12-.64-.19a5.47,5.47,0,0,1-.91-.28,2.67,2.67,0,0,1-.66-.42,1.72,1.72,0,0,1-.41-.56,2,2,0,0,1-.13-.76,1.84,1.84,0,0,1,.17-.77,1.73,1.73,0,0,1,.5-.61,2,2,0,0,1,.74-.4,2.71,2.71,0,0,1,.91-.14,3,3,0,0,1,1,.14,2.32,2.32,0,0,1,.77.43,3.2,3.2,0,0,1,.58.68l-.56.55a2.75,2.75,0,0,0-.48-.58,2.16,2.16,0,0,0-.59-.37,2,2,0,0,0-.71-.12,2,2,0,0,0-.79.15,1.31,1.31,0,0,0-.53.42,1,1,0,0,0-.19.61,1.14,1.14,0,0,0,.09.46.93.93,0,0,0,.29.34,1.68,1.68,0,0,0,.52.26,6.53,6.53,0,0,0,.76.22,6.27,6.27,0,0,1,.95.3,2.77,2.77,0,0,1,.72.41,1.49,1.49,0,0,1,.46.55A1.53,1.53,0,0,1,62.75,73.08Z"/><path class="cls-1" d="M71,68v7.1h-.79V71.83c0-.6,0-1.15,0-1.64,0-.29,0-.57.06-.86L67.91,73h-.55l-2.3-3.67c0,.25,0,.52,0,.78,0,.48,0,1.05,0,1.7v3.25h-.8V68h.77l2.55,4.13L70.24,68Z"/><path class="cls-1" d="M75.89,68H75l-2.72,7.1h.82l.74-2H77l.74,2h.86Zm-1.78,4.37.69-1.83c.06-.16.13-.33.18-.5s.13-.35.19-.52l.18-.51.06-.21.06.16c.06.17.12.36.18.54s.13.37.18.54.11.33.16.45l.71,1.88Z"/><path class="cls-1" d="M83.47,72.16a1.46,1.46,0,0,0,.36-.16,2.08,2.08,0,0,0,.77-.76,2,2,0,0,0,.29-1.06,2.15,2.15,0,0,0-.3-1.13,2.24,2.24,0,0,0-.8-.79A2.22,2.22,0,0,0,82.67,68H79.89v7.1h.79v-2.8h1.94l1.61,2.8h.94Zm-2.79-.65V68.75h1.89a1.66,1.66,0,0,1,.78.18,1.3,1.3,0,0,1,.53.51,1.38,1.38,0,0,1,.19.74,1.34,1.34,0,0,1-.16.68,1.3,1.3,0,0,1-.45.48,1.27,1.27,0,0,1-.66.17Z"/><polygon class="cls-1" points="90.58 67.97 90.58 68.75 88.47 68.75 88.47 75.08 87.68 75.08 87.68 68.75 85.65 68.75 85.65 67.97 90.58 67.97"/><path class="cls-1" d="M99.35,73.08A2,2,0,0,1,99,74.19a2.05,2.05,0,0,1-.88.73,3,3,0,0,1-1.31.26,3.4,3.4,0,0,1-1-.15,2.88,2.88,0,0,1-.87-.45,3.4,3.4,0,0,1-.7-.76l.55-.6a2.91,2.91,0,0,0,1,1,2.33,2.33,0,0,0,1.13.27,2.19,2.19,0,0,0,.83-.15,1.32,1.32,0,0,0,.59-.43,1,1,0,0,0,.22-.63,1.07,1.07,0,0,0-.08-.41,1,1,0,0,0-.23-.33,1.57,1.57,0,0,0-.38-.25,3.62,3.62,0,0,0-.51-.2c-.19-.07-.41-.12-.64-.19a5.47,5.47,0,0,1-.91-.28,2.49,2.49,0,0,1-.66-.42,1.59,1.59,0,0,1-.41-.56,1.94,1.94,0,0,1-.14-.76,1.71,1.71,0,0,1,.18-.77,1.84,1.84,0,0,1,.5-.61,2,2,0,0,1,.74-.4,2.67,2.67,0,0,1,.91-.14,3,3,0,0,1,1,.14,2.42,2.42,0,0,1,.77.43,3.2,3.2,0,0,1,.58.68l-.56.55a2.79,2.79,0,0,0-.49-.58,1.9,1.9,0,0,0-.59-.37,2.13,2.13,0,0,0-1.49,0,1.31,1.31,0,0,0-.53.42,1,1,0,0,0-.2.61,1.15,1.15,0,0,0,.1.46.93.93,0,0,0,.29.34,1.73,1.73,0,0,0,.51.26,6.74,6.74,0,0,0,.77.22,6.66,6.66,0,0,1,1,.3,2.77,2.77,0,0,1,.72.41,1.71,1.71,0,0,1,.46.55A1.66,1.66,0,0,1,99.35,73.08Z"/><path class="cls-1" d="M107.11,70.09a3.57,3.57,0,0,0-.73-1.16,3.43,3.43,0,0,0-1.11-.76,3.53,3.53,0,0,0-1.4-.26,3.46,3.46,0,0,0-1.38.26,3.35,3.35,0,0,0-1.84,1.92,4.23,4.23,0,0,0,0,2.92,3.42,3.42,0,0,0,.73,1.15,3.54,3.54,0,0,0,1.11.76,3.46,3.46,0,0,0,1.38.26,3.53,3.53,0,0,0,1.4-.26,3.43,3.43,0,0,0,1.11-.76,3.68,3.68,0,0,0,.73-1.16,4.2,4.2,0,0,0,0-2.91Zm-.76,2.6a2.63,2.63,0,0,1-.56.91,2.31,2.31,0,0,1-.84.6,3,3,0,0,1-2.15,0,2.43,2.43,0,0,1-.85-.6,2.59,2.59,0,0,1-.54-.91,3.38,3.38,0,0,1,0-2.29,2.59,2.59,0,0,1,.54-.91,2.43,2.43,0,0,1,.85-.6,2.86,2.86,0,0,1,2.15,0,2.31,2.31,0,0,1,.84.6,2.63,2.63,0,0,1,.56.91,3.38,3.38,0,0,1,0,2.29Z"/><polygon class="cls-1" points="113.11 74.31 113.11 75.08 108.91 75.08 108.91 67.97 109.7 67.97 109.7 74.31 113.11 74.31"/><path class="cls-1" d="M120,68v4.38a2.88,2.88,0,0,1-.36,1.44,2.61,2.61,0,0,1-1,1,2.91,2.91,0,0,1-1.45.36,2.81,2.81,0,0,1-1.43-.36,2.55,2.55,0,0,1-1-1,2.88,2.88,0,0,1-.37-1.44V68h.8v4.29a2.27,2.27,0,0,0,.26,1.08,1.94,1.94,0,0,0,1.73,1,2.05,2.05,0,0,0,1-.27,2,2,0,0,0,.73-.75,2.27,2.27,0,0,0,.26-1.08V68Z"/><polygon class="cls-1" points="126.23 67.97 126.23 68.75 124.12 68.75 124.12 75.08 123.33 75.08 123.33 68.75 121.3 68.75 121.3 67.97 126.23 67.97"/><polygon class="cls-1" points="129.18 68.73 129.18 74.33 130.33 74.33 130.33 75.08 127.24 75.08 127.24 74.33 128.39 74.33 128.39 68.73 127.24 68.73 127.24 67.97 130.33 67.97 130.33 68.73 129.18 68.73"/><path class="cls-1" d="M138.1,70.09a3.41,3.41,0,0,0-.73-1.16,3.32,3.32,0,0,0-1.11-.76,3.51,3.51,0,0,0-3.89.76,3.57,3.57,0,0,0-.73,1.16,4.23,4.23,0,0,0,0,2.92,3.42,3.42,0,0,0,.73,1.15,3.54,3.54,0,0,0,1.11.76,3.85,3.85,0,0,0,2.78,0,3.32,3.32,0,0,0,1.11-.76A3.51,3.51,0,0,0,138.1,73a4.2,4.2,0,0,0,0-2.91Zm-.76,2.6a2.77,2.77,0,0,1-.55.91,2.43,2.43,0,0,1-.85.6,2.91,2.91,0,0,1-1.07.2,2.87,2.87,0,0,1-1.07-.2,2.43,2.43,0,0,1-.85-.6,2.61,2.61,0,0,1-.55-.91,3.55,3.55,0,0,1,0-2.29,2.61,2.61,0,0,1,.55-.91,2.43,2.43,0,0,1,.85-.6,2.69,2.69,0,0,1,1.07-.21,2.72,2.72,0,0,1,1.07.21,2.43,2.43,0,0,1,.85.6,2.77,2.77,0,0,1,.55.91,3.38,3.38,0,0,1,0,2.29Z"/><path class="cls-1" d="M145.8,68v7.1h-.74l-4.48-5.87,0,.39c0,.26,0,.52,0,.76s0,.47,0,.67,0,.38,0,.52,0,.24,0,.3v3.23h-.8V68h.73l4.46,5.9v-.06c0-.21,0-.46,0-.73s0-.56,0-.86,0-.59,0-.87,0-.55,0-.78V68Z"/><path class="cls-1" d="M152.48,73.08a2,2,0,0,1-.32,1.11,2.05,2.05,0,0,1-.88.73,3,3,0,0,1-1.31.26,3.4,3.4,0,0,1-1-.15,2.77,2.77,0,0,1-.87-.45,3.18,3.18,0,0,1-.7-.76l.55-.6a3,3,0,0,0,1,1,2.4,2.4,0,0,0,1.14.27,2.23,2.23,0,0,0,.83-.15,1.32,1.32,0,0,0,.59-.43,1,1,0,0,0,.21-.63,1.07,1.07,0,0,0-.07-.41,1,1,0,0,0-.23-.33,1.57,1.57,0,0,0-.38-.25,4.18,4.18,0,0,0-.51-.2c-.19-.07-.41-.12-.64-.19a5.47,5.47,0,0,1-.91-.28,2.49,2.49,0,0,1-.66-.42,1.59,1.59,0,0,1-.41-.56,1.94,1.94,0,0,1-.14-.76,1.71,1.71,0,0,1,.18-.77,1.81,1.81,0,0,1,.49-.61,2.12,2.12,0,0,1,.74-.4,2.77,2.77,0,0,1,.92-.14,3,3,0,0,1,1,.14,2.38,2.38,0,0,1,.76.43,2.72,2.72,0,0,1,.58.68l-.55.55a3.13,3.13,0,0,0-.49-.58,2,2,0,0,0-.59-.37,2,2,0,0,0-.7-.12,2,2,0,0,0-.79.15,1.24,1.24,0,0,0-.53.42,1,1,0,0,0-.2.61,1,1,0,0,0,.1.46.9.9,0,0,0,.28.34,1.94,1.94,0,0,0,.52.26,6.74,6.74,0,0,0,.77.22,6.66,6.66,0,0,1,.95.3,2.77,2.77,0,0,1,.72.41,1.71,1.71,0,0,1,.46.55A1.66,1.66,0,0,1,152.48,73.08Z"/><polygon class="cls-1" points="58.96 80.93 58.96 83.32 62.16 83.32 62.16 84.1 58.96 84.1 58.96 87.27 58.17 87.27 58.17 80.16 62.64 80.16 62.64 80.93 58.96 80.93"/><path class="cls-1" d="M70.27,82.28a3.47,3.47,0,0,0-.73-1.16,3.38,3.38,0,0,0-1.11-.76,3.53,3.53,0,0,0-1.4-.27,3.47,3.47,0,0,0-1.38.27,3.38,3.38,0,0,0-1.11.76,3.47,3.47,0,0,0-.73,1.16,4.2,4.2,0,0,0,0,2.91,3.33,3.33,0,0,0,.73,1.15,3.38,3.38,0,0,0,1.11.76,3.47,3.47,0,0,0,1.38.27,3.53,3.53,0,0,0,1.4-.27,3.38,3.38,0,0,0,1.11-.76,3.47,3.47,0,0,0,.73-1.16,4.17,4.17,0,0,0,0-2.9Zm-.76,2.6a2.73,2.73,0,0,1-.56.91,2.24,2.24,0,0,1-.85.59,2.65,2.65,0,0,1-1.07.21A2.72,2.72,0,0,1,66,86.38a2.41,2.41,0,0,1-.85-.59,2.68,2.68,0,0,1-.54-.91,3.41,3.41,0,0,1,0-2.3,2.68,2.68,0,0,1,.54-.91A2.55,2.55,0,0,1,67,80.86a2.65,2.65,0,0,1,1.07.21,2.51,2.51,0,0,1,.85.6,2.73,2.73,0,0,1,.56.91,3.58,3.58,0,0,1,0,2.3Z"/><path class="cls-1" d="M75.66,84.35a2.72,2.72,0,0,0,.35-.16,2.08,2.08,0,0,0,.77-.76,2,2,0,0,0,.29-1.07,2.11,2.11,0,0,0-.3-1.12,2.07,2.07,0,0,0-.79-.79,2.29,2.29,0,0,0-1.13-.29H72.07v7.11h.79v-2.8h2l1.6,2.8h.94Zm-2.8-3.42h1.89a1.66,1.66,0,0,1,.78.18,1.52,1.52,0,0,1,.53.51,1.44,1.44,0,0,1,.2.74,1.41,1.41,0,0,1-.17.69,1.13,1.13,0,0,1-.45.47,1.18,1.18,0,0,1-.66.17H72.86Z"/><path class="cls-1" d="M86.68,84.34a1.78,1.78,0,0,0-.58-.64,2,2,0,0,0-.54-.27,1.7,1.7,0,0,0,.62-.47,1.59,1.59,0,0,0,.33-1,1.81,1.81,0,0,0-.24-1,1.62,1.62,0,0,0-.7-.62,2.38,2.38,0,0,0-1.07-.22H81.61v7.11h3a2.77,2.77,0,0,0,.94-.15,2.14,2.14,0,0,0,.72-.42,1.71,1.71,0,0,0,.46-.66,2.16,2.16,0,0,0,.16-.86A1.68,1.68,0,0,0,86.68,84.34Zm-4.27-3.41h2a1.41,1.41,0,0,1,1,.32,1.06,1.06,0,0,1,.35.83,1.09,1.09,0,0,1-.61,1,1.38,1.38,0,0,1-.65.15h-2Zm3.45,5a1.15,1.15,0,0,1-.52.45,2,2,0,0,1-.8.16H82.41V84h2.08a2.07,2.07,0,0,1,.82.15,1.31,1.31,0,0,1,.55.43,1.05,1.05,0,0,1,.19.64A1.22,1.22,0,0,1,85.86,85.89Z"/><polygon class="cls-1" points="90.04 80.91 90.04 86.52 91.18 86.52 91.18 87.27 88.09 87.27 88.09 86.52 89.24 86.52 89.24 80.91 88.09 80.91 88.09 80.16 91.18 80.16 91.18 80.91 90.04 80.91"/><path class="cls-1" d="M99,82.28a3.32,3.32,0,0,0-.73-1.16,3.24,3.24,0,0,0-1.1-.76,3.74,3.74,0,0,0-2.79,0,3.24,3.24,0,0,0-1.1.76,3.32,3.32,0,0,0-.73,1.16,4.2,4.2,0,0,0,0,2.91,3.19,3.19,0,0,0,.73,1.15,3.24,3.24,0,0,0,1.1.76,3.74,3.74,0,0,0,2.79,0,3.24,3.24,0,0,0,1.1-.76A3.32,3.32,0,0,0,99,85.18a4.17,4.17,0,0,0,0-2.9Zm-.76,2.6a2.7,2.7,0,0,1-.55.91,2.41,2.41,0,0,1-.85.59,2.69,2.69,0,0,1-1.07.21,2.72,2.72,0,0,1-1.07-.21,2.41,2.41,0,0,1-.85-.59,2.7,2.7,0,0,1-.55-.91,3.58,3.58,0,0,1,0-2.3,2.62,2.62,0,0,1,4.94,0,3.41,3.41,0,0,1,0,2.3Z"/><polygon class="cls-1" points="104.64 80.16 104.64 80.93 102.53 80.93 102.53 87.27 101.74 87.27 101.74 80.93 99.71 80.93 99.71 80.16 104.64 80.16"/><polygon class="cls-1" points="106.78 80.93 106.78 83.23 109.72 83.23 109.72 84 106.78 84 106.78 86.5 110.27 86.5 110.27 87.27 105.99 87.27 105.99 80.16 110.29 80.16 110.29 80.93 106.78 80.93"/><path class="cls-1" d="M117,85.74l.41.66a2.12,2.12,0,0,1-.62.5,3.86,3.86,0,0,1-.86.34,3.31,3.31,0,0,1-.93.13,3.62,3.62,0,0,1-1.41-.27,3.24,3.24,0,0,1-1.1-.76,3.47,3.47,0,0,1-.73-1.16,4.11,4.11,0,0,1-.26-1.46,3.89,3.89,0,0,1,.26-1.44,3.39,3.39,0,0,1,.74-1.15,3.24,3.24,0,0,1,1.1-.76,3.65,3.65,0,0,1,1.38-.26,3.06,3.06,0,0,1,1,.16,3.56,3.56,0,0,1,.9.43,2.53,2.53,0,0,1,.67.63l-.55.57a2.44,2.44,0,0,0-.58-.53,2.7,2.7,0,0,0-.7-.35,2.28,2.28,0,0,0-.73-.12,2.71,2.71,0,0,0-1.06.21,2.48,2.48,0,0,0-.84.58,2.74,2.74,0,0,0-.56.9,3.15,3.15,0,0,0-.2,1.13,3.27,3.27,0,0,0,.2,1.15,2.65,2.65,0,0,0,.57.91,2.73,2.73,0,0,0,.87.59,2.9,2.9,0,0,0,1.12.21,2.71,2.71,0,0,0,.74-.11,2.54,2.54,0,0,0,.67-.3A2.15,2.15,0,0,0,117,85.74Z"/><polygon class="cls-1" points="124.48 80.16 124.48 87.27 123.69 87.27 123.69 84.11 119.73 84.11 119.73 87.27 118.93 87.27 118.93 80.16 119.73 80.16 119.73 83.34 123.69 83.34 123.69 80.16 124.48 80.16"/><path class="cls-1" d="M132.47,80.16v7.11h-.74l-4.48-5.88q0,.21,0,.39c0,.27,0,.52,0,.77s0,.46,0,.67,0,.37,0,.51v3.54h-.79V80.16h.72l4.47,5.91V86c0-.22,0-.46,0-.73s0-.57,0-.86,0-.59,0-.88,0-.54,0-.77V80.16Z"/><path class="cls-1" d="M140.73,82.28a3.32,3.32,0,0,0-.73-1.16,3.18,3.18,0,0,0-1.11-.76,3.48,3.48,0,0,0-1.39-.27,3.55,3.55,0,0,0-1.39.27,3.24,3.24,0,0,0-1.1.76,3.49,3.49,0,0,0-.74,1.16,4.2,4.2,0,0,0,0,2.91,3.35,3.35,0,0,0,.74,1.15,3.24,3.24,0,0,0,1.1.76,3.55,3.55,0,0,0,1.39.27,3.48,3.48,0,0,0,1.39-.27,3.18,3.18,0,0,0,1.11-.76,3.32,3.32,0,0,0,.73-1.16,4.17,4.17,0,0,0,0-2.9Zm-.76,2.6a2.88,2.88,0,0,1-.55.91,2.41,2.41,0,0,1-.85.59,2.86,2.86,0,0,1-2.15,0,2.46,2.46,0,0,1-.84-.59,2.7,2.7,0,0,1-.55-.91,3.58,3.58,0,0,1,0-2.3,2.7,2.7,0,0,1,.55-.91,2.8,2.8,0,0,1,.84-.6,2.65,2.65,0,0,1,3,.6,2.88,2.88,0,0,1,.55.91,3.41,3.41,0,0,1,0,2.3Z"/><polygon class="cls-1" points="146.74 86.5 146.74 87.27 142.53 87.27 142.53 80.16 143.33 80.16 143.33 86.5 146.74 86.5"/><path class="cls-1" d="M154.25,82.28a3.63,3.63,0,0,0-.73-1.16,3.38,3.38,0,0,0-1.11-.76,3.57,3.57,0,0,0-1.4-.27,3.47,3.47,0,0,0-1.38.27,3.18,3.18,0,0,0-1.11.76,3.47,3.47,0,0,0-.73,1.16,4.2,4.2,0,0,0,0,2.91,3.33,3.33,0,0,0,.73,1.15,3.18,3.18,0,0,0,1.11.76,3.47,3.47,0,0,0,1.38.27,3.57,3.57,0,0,0,1.4-.27,3.38,3.38,0,0,0,1.11-.76,3.63,3.63,0,0,0,.73-1.16,4.17,4.17,0,0,0,0-2.9Zm-.76,2.6a2.9,2.9,0,0,1-.56.91,2.32,2.32,0,0,1-.85.59,2.65,2.65,0,0,1-1.07.21,2.72,2.72,0,0,1-1.07-.21,2.37,2.37,0,0,1-.84-.59,2.7,2.7,0,0,1-.55-.91,3.41,3.41,0,0,1,0-2.3A2.54,2.54,0,0,1,151,80.86a2.65,2.65,0,0,1,1.07.21,2.61,2.61,0,0,1,.85.6,2.9,2.9,0,0,1,.56.91,3.58,3.58,0,0,1,0,2.3Z"/><path class="cls-1" d="M162.36,84.36a3.06,3.06,0,0,1-.25,1.22,2.69,2.69,0,0,1-.67,1,3,3,0,0,1-1,.62,3.37,3.37,0,0,1-1.24.22,3.82,3.82,0,0,1-1.45-.27,3.6,3.6,0,0,1-1.18-.77,3.33,3.33,0,0,1-.79-1.15,3.87,3.87,0,0,1,0-2.89,3.42,3.42,0,0,1,.77-1.15,3.49,3.49,0,0,1,1.16-.76,3.75,3.75,0,0,1,1.43-.27,3.82,3.82,0,0,1,1.06.15,3.73,3.73,0,0,1,1,.43,2.77,2.77,0,0,1,.69.62l-.53.54a2.87,2.87,0,0,0-.64-.51,3.38,3.38,0,0,0-.75-.34,2.63,2.63,0,0,0-.77-.12,2.72,2.72,0,0,0-1.11.22,2.7,2.7,0,0,0-1.5,1.49,3,3,0,0,0-.22,1.14,3,3,0,0,0,.22,1.13,2.73,2.73,0,0,0,.62.91,2.87,2.87,0,0,0,2.07.82,2.93,2.93,0,0,0,.9-.14,2.45,2.45,0,0,0,.73-.4,1.89,1.89,0,0,0,.49-.61,1.58,1.58,0,0,0,.17-.74v-.15h-2.33v-.79h3.13a1.37,1.37,0,0,0,0,.19c0,.08,0,.15,0,.22A1.28,1.28,0,0,1,162.36,84.36Z"/><polygon class="cls-1" points="168.89 80.16 166.28 84.11 166.28 87.27 165.5 87.27 165.5 84.12 162.7 80.16 163.66 80.16 165.91 83.36 167.97 80.16 168.89 80.16"/></g></g></svg>